<svg width="185" height="185" viewBox="0 0 185 185" fill="none" xmlns="http://www.w3.org/2000/svg">
<path fill-rule="evenodd" clip-rule="evenodd" d="M73.1225 0H111.877C131.271 0 149.87 7.70396 163.583 21.4171C177.296 35.1302 185 53.7292 185 73.1225V111.877C185 152.262 152.262 185 111.877 185H73.1225C32.7381 185 0 152.262 0 111.877V73.1225C0 32.7381 32.7381 0 73.1225 0ZM92.5 147.342C97.548 147.342 101.64 143.25 101.64 138.202V92.5C101.654 90.0705 100.701 87.7353 98.9896 86.0104L62.4284 49.4491C60.1098 47.1306 56.7305 46.2251 53.5634 47.0737C50.3962 47.9224 47.9224 50.3962 47.0737 53.5634C46.2251 56.7305 47.1306 60.1098 49.4491 62.4284L83.3597 96.2475V138.202C83.3597 143.25 87.4519 147.342 92.5 147.342Z" fill="black"/>
</svg>
