<svg width="185" height="185" viewBox="0 0 185 185" fill="none" xmlns="http://www.w3.org/2000/svg">
<path fill-rule="evenodd" clip-rule="evenodd" d="M143.911 0H41.076C17.7616 0.820527 -0.555593 20.6408 0.0161309 44.4293V173.944C-0.222601 178.296 2.20641 182.343 6.11441 184.106C10.0224 185.868 14.592 184.977 17.5868 181.868L39.5039 158.002C43.6796 153.535 49.4512 150.982 55.5024 150.928H143.541C154.907 150.633 165.684 145.71 173.468 137.256C181.252 128.802 185.394 117.522 184.97 105.932V44.4293C185.542 20.6408 167.225 0.820527 143.911 0ZM57.8143 49.2401H104.053C107.883 49.2401 110.989 52.4076 110.989 56.3149C110.989 60.2221 107.883 63.3896 104.053 63.3896H57.8143C53.9838 63.3896 50.8785 60.2221 50.8785 56.3149C50.8785 52.4076 53.9838 49.2401 57.8143 49.2401ZM57.8143 101.121H127.172C131.003 101.121 134.108 97.954 134.108 94.0468C134.108 90.1395 131.003 86.972 127.172 86.972H57.8143C53.9838 86.972 50.8785 90.1395 50.8785 94.0468C50.8785 97.954 53.9838 101.121 57.8143 101.121Z" fill="black"/>
</svg>
