<?xml version="1.0" encoding="UTF-8"?>
<svg id="uuid-6250d240-e36a-4a45-a269-89f11c381fef" data-name="Layer 1" xmlns="http://www.w3.org/2000/svg" viewBox="0 0 267.7 270.05">
  <path d="M164.63,105.46v7.48c0,48.86,0,97.72,0,146.58,0,9.34-1.12,10.5-10.44,10.51-47.89,.03-95.78,.03-143.66,0-9.29,0-10.5-1.24-10.51-10.52-.02-47.89-.02-95.78,0-143.66,0-9.4,1-10.38,10.49-10.38,48.86-.01,97.72,0,146.58,0h7.55Zm-109.03,40.67c0-8.45-6.59-15.27-14.99-15.5-8.47-.24-15.89,6.95-15.93,15.42-.04,8.62,7.04,15.47,15.85,15.33,8.63-.14,15.06-6.65,15.07-15.25Zm11.05,41.37c-.16,8.85,6.6,15.84,15.33,15.84,8.31,0,15.23-6.81,15.38-15.15,.16-8.78-6.67-15.76-15.42-15.75-8.57,.01-15.14,6.48-15.29,15.05Zm57.6,58.19c8.77,.1,15.7-6.77,15.63-15.51-.07-8.45-6.71-15.07-15.22-15.18-8.48-.11-15.34,6.38-15.6,14.77-.27,8.77,6.45,15.82,15.19,15.92Z"/>
  <path d="M88.94,93.11c5.88-29.86,11.57-58.43,17.09-87.03,1.22-6.33,4.95-6.67,10.21-5.63,38.59,7.63,77.21,15.12,115.81,22.64,9.53,1.86,19.06,3.7,28.59,5.56,4.86,.95,7.98,2.93,6.8,8.88-9.99,50.49-19.84,101.01-29.75,151.51-.13,.68-.54,1.3-1.09,2.55-19.87-3.91-39.76-7.82-60.04-11.82,0-22.42-.09-44.27,.16-66.12,.02-1.81,2.03-4.01,3.67-5.33,5.69-4.56,8.35-10.11,6.3-17.28-1.85-6.48-6.4-10.37-13.05-11.04-7.26-.74-12.55,2.54-16,9.06-.87,1.64-2.79,3.85-4.26,3.87-21.09,.25-42.19,.17-64.46,.17Zm49.79-62.17c-8.48,.13-15.01,6.77-15.05,15.31-.04,8.73,7.02,15.75,15.63,15.55,8.61-.2,15.42-7.49,15.1-16.16-.32-8.45-7.12-14.83-15.68-14.7Zm97.6,33.39c.02-8.4-6.63-15.31-14.95-15.53-8.49-.23-15.85,6.92-15.89,15.42-.04,8.6,7.09,15.56,15.78,15.42,8.47-.14,15.03-6.82,15.06-15.31Zm-46.38,81.03c.12,8.53,7.58,15.61,16.1,15.27,8.18-.32,15.11-7.53,15.03-15.65-.09-8.46-7.52-15.46-16.13-15.18-8.36,.27-15.12,7.27-15,15.56Z"/>
</svg>